<svg width="735" height="706" viewBox="0 0 735 706" fill="none" xmlns="http://www.w3.org/2000/svg">
<g filter="url(#filter0_d_4_231)">
<path d="M110.573 678.572C110.573 678.572 -3.72393 575.192 0.343208 438.866C4.41035 302.539 109.766 280.384 166.96 313.657C224.154 346.929 276.655 365.664 322.891 312.948C369.127 260.233 350.647 175.649 418.39 114.944C486.133 54.2391 598.454 86.6893 599.94 184.904C601.427 283.119 547.539 335.44 565.635 381.411C583.733 427.384 649.8 421.982 662.408 504.93C672.2 569.348 625.2 605.645 608.298 634.792C591.397 663.939 594.076 678.572 594.076 678.572H110.573Z" fill="white"/>
</g>
<path d="M90.8825 223.553C63.5135 176.765 83.6736 131.673 126.487 150.346C169.3 169.018 189.09 174.352 232.784 140.581C276.478 106.808 343.162 146.094 348.642 198.473C354.123 250.853 322.246 307.081 235.089 313.664C147.932 320.246 90.8825 223.553 90.8825 223.553Z" fill="white"/>
<path d="M607.255 4.21338L597.747 0L587.283 29.5448L596.792 33.7582L607.255 4.21338Z" fill="#DA6C6C"/>
<path d="M608.601 28.0751L612.368 17.4392L585.955 5.73504L582.188 16.3709L608.601 28.0751Z" fill="#DA6C6C"/>
<path d="M728.958 462.61L719.449 458.397L708.986 487.942L718.494 492.155L728.958 462.61Z" fill="#DA6C6C"/>
<path d="M730.297 486.477L734.064 475.841L707.651 464.137L703.885 474.773L730.297 486.477Z" fill="#DA6C6C"/>
<path d="M147.597 39.893L137.495 41.6754L141.921 73.0666L152.024 71.2842L147.597 39.893Z" fill="#DA6C6C"/>
<path d="M159.584 59.6527L157.99 48.3521L129.927 53.3033L131.52 64.6038L159.584 59.6527Z" fill="#DA6C6C"/>
<path d="M17.6725 419.38L7.56995 421.162L11.9962 452.554L22.0988 450.771L17.6725 419.38Z" fill="#DA6C6C"/>
<path d="M29.657 439.131L28.0635 427.831L1.63476e-05 432.782L1.59344 444.082L29.657 439.131Z" fill="#DA6C6C"/>
<path d="M155.232 476.162C139.564 465.498 129.263 485.394 125 503.413C120.738 521.432 115.838 523.435 114.049 515.926C112.26 508.419 120.76 471.379 123.894 454.331C127.027 437.281 123.894 409.816 109.526 409.816C95.1593 409.816 92.0279 437.281 95.1593 454.331C98.2907 471.379 106.793 508.419 105.004 515.926C103.215 523.433 98.3153 521.432 94.0528 503.413C89.7903 485.394 73.2412 455.237 57.5727 465.901C39.2263 478.387 52.8748 504.477 76.366 514.424C95.6569 522.594 103.215 546.958 103.215 546.958H109.526H115.838C115.838 546.958 123.396 522.593 142.687 514.424C166.178 504.477 173.578 488.648 155.232 476.162Z" fill="#7C9A8A"/>
<path d="M109.914 422.828H109.137V546.958H109.914V422.828Z" fill="#38414B"/>
<path d="M98.397 527.393C78.9899 486.936 54.2874 469.206 54.0402 469.032L54.4544 468.296C54.7032 468.472 79.5694 486.311 99.0813 526.983L98.397 527.393Z" fill="#38414B"/>
<path d="M119.194 527.435L118.555 526.939C140.719 491.24 158.586 478.826 158.764 478.703L159.169 479.447C158.994 479.568 141.253 491.907 119.194 527.435Z" fill="#38414B"/>
<path d="M82.0068 540.67C82.0068 564.211 87.3873 588.507 90.5956 600.897C91.8822 605.868 95.9417 609.274 100.568 609.274H118.484C123.109 609.274 127.169 605.868 128.456 600.897C131.664 588.505 137.044 564.209 137.044 540.67H82.0068Z" fill="#38414B"/>
<path d="M132.202 584.515C134.712 571.975 137.046 556.169 137.046 540.67H82.0068C82.0068 542.939 82.0706 545.211 82.1639 547.481C89.0094 550.708 95.2722 546.211 103.098 552.965C110.929 559.722 105.886 562.475 115.12 566.98C122.338 570.503 129.366 577.545 132.202 584.515Z" fill="#2E353D"/>
<path d="M173.235 588.56C173.235 588.56 168.979 603.025 169.571 611.883C169.571 611.883 172.588 613.872 177.114 613.148C181.64 612.425 199.905 617.669 204.753 614.956C209.603 612.244 191.175 601.395 191.175 601.395L186.811 595.067L187.54 588.558L173.235 588.56Z" fill="#242A30"/>
<path d="M276.389 588.56C276.389 588.56 272.133 603.025 272.726 611.883C272.726 611.883 275.742 613.872 280.268 613.148C284.794 612.425 303.059 617.669 307.908 614.956C312.756 612.244 294.329 601.395 294.329 601.395L289.965 595.067L289.127 588.558L276.389 588.56Z" fill="#242A30"/>
<path d="M293.169 308.374C293.169 308.374 298.017 352.027 296.724 378.174C295.431 404.321 297.593 464.105 296.944 482.428C296.294 500.749 292.594 590.909 292.594 590.909H268.707C268.707 590.909 261.367 539.031 259.971 521.963C258.575 504.894 250.603 471.821 250.603 452.051C250.603 432.284 240.303 340.195 240.303 340.195C240.303 340.195 227.629 415.891 224.245 438.551C220.862 461.212 213.534 495.926 209.224 519.551C204.914 543.177 193.275 590.907 193.275 590.907H169.568C169.568 590.907 172.154 539.319 171.722 519.068C171.292 498.817 172.154 466.329 174.308 448.342C176.464 430.354 173.878 392.747 175.602 368.64C177.325 344.533 180.344 316.086 180.344 316.086L193.706 263.835L277.144 261.123L293.169 308.374Z" fill="#A0CFC4"/>
<path d="M242.703 362.246C247.709 358.306 264.151 352.392 268.276 348.876C272.603 345.188 285.98 339.311 295.734 337.745C294.629 321.546 293.169 308.376 293.169 308.376L277.147 261.127L193.709 263.839L180.347 316.09C180.347 316.09 177.33 344.537 175.605 368.644C175.273 373.287 175.104 378.434 175.025 383.843C193.434 369.233 238.799 349.211 238.799 349.211C239.73 343.627 240.305 340.197 240.305 340.197C240.305 340.197 241.315 349.231 242.703 362.246Z" fill="#38414B"/>
<path d="M327.031 187.479C327.031 201.348 328.587 210.264 329.641 214.711C330.112 216.701 331.702 218.095 333.543 218.095H343.15C344.992 218.095 346.581 216.701 347.052 214.711C348.107 210.264 349.662 201.348 349.662 187.479H327.031Z" fill="#F7F7F7"/>
<path d="M314.828 179.992L317.415 220.023C317.415 220.023 360.896 219.541 360.896 222.795C360.896 226.049 349.351 230.467 342.147 229.123C340.207 228.762 319.518 237.439 309.819 236.716C300.121 235.993 295.595 227.374 295.595 227.374L293.171 182.114L314.828 179.992Z" fill="#A75858"/>
<path d="M256.134 72.9237C252.304 67.2237 257.447 58.8066 257.447 58.8066C257.447 58.8066 255.669 49.0437 258.902 41.9925C262.135 34.9413 269.085 35.1226 275.227 34.9413C281.368 34.76 293.491 30.2411 300.119 29.8786C306.745 29.5179 312.404 34.3993 309.494 40.7273C306.585 47.0552 300.928 51.7554 290.745 51.3947C290.745 51.3947 261.609 81.0753 256.134 72.9237Z" fill="#363B35"/>
<path d="M292.09 47.4746L290.465 68.3791L286.605 67.015C286.605 67.015 284.37 79.7405 280.714 79.0575C277.057 78.3764 275.228 77.4664 275.228 77.4664L270.354 96.3276L258.774 109.053L245.569 93.3742L256.132 72.9237C256.132 72.9237 266.289 69.9703 268.83 61.3353C268.83 61.3353 266.291 56.5637 268.83 52.7003C271.369 48.8368 273.197 54.7455 273.197 54.7455C273.197 54.7455 276.256 52.3633 279.913 48.4999C283.572 44.6383 292.09 47.4746 292.09 47.4746Z" fill="#DA6C6C"/>
<path d="M275.23 77.4682C272.642 76.5252 267.898 72.4384 268.831 65.4953C269.087 63.5965 268.831 61.3334 268.831 61.3334C267.992 64.1861 266.319 66.4071 264.458 68.1173C264.616 69.7597 264.685 71.8873 264.399 74.339C263.811 79.3578 266.895 87.1762 272.184 89.2544L275.23 77.4682Z" fill="#8F3D3D"/>
<path d="M273.693 96.7743C273.693 96.7743 273.935 95.3278 273.693 94.5148C273.451 93.7019 271.333 92.5465 271.333 92.5465L270.642 95.218C270.642 95.218 267.308 97.4975 264.328 98.4918C261.348 99.486 258.499 105.814 258.499 105.814C258.499 105.814 259.066 100.751 258.499 98.9441C257.933 97.1369 247.699 89.2562 247.699 89.2562L248.765 87.1927H244.519L241.77 91.7134C241.77 91.7134 208.366 97.1973 198.237 111.181C188.108 125.162 188.969 133.36 186.598 139.385C184.228 145.413 179.486 154.09 178.193 161.806C176.9 169.52 169.573 182.539 169.573 182.539C169.573 182.539 180.995 186.818 191.016 183.835C191.016 183.835 187.461 201.945 187.461 217.253C187.461 232.562 182.613 248.11 181.319 264.383C180.164 278.935 173.317 310.268 172.578 322.933C172.464 324.905 173.819 326.587 175.584 326.659C180.142 326.842 189.749 327.451 203.301 329.473C217.961 331.659 229.299 330.54 233.961 329.865C235.38 329.66 236.558 328.567 237.012 327.047C239.595 318.384 248.161 288.365 249.531 266.915C249.531 266.915 248.992 288.973 251.687 300.906C253.541 309.121 254.579 318.879 255.045 324.161C255.242 326.378 256.895 328.056 258.887 328.058C266.823 328.063 286.281 327.7 298.124 324.256C299.785 323.773 300.923 322.094 300.903 320.173C300.795 309.594 300.35 274.799 298.993 253.532C297.377 228.22 298.346 212.67 297.7 204.353C297.053 196.037 297.377 183.831 297.377 183.831C297.377 183.831 315.48 184.825 318.552 180.848C318.552 180.848 316.128 154.813 313.864 144.688C311.602 134.563 309.338 126.969 306.752 119.376C304.161 111.781 294.614 100.224 273.693 96.7743Z" fill="#A0CFC4"/>
<path d="M169.571 182.537C169.571 182.537 177.856 179.986 183.796 179.041C189.736 178.097 213.429 176.269 224.313 183.833C224.313 183.833 201.252 192.179 169.571 182.537Z" fill="#38414B"/>
<path d="M185.772 235.108C184.241 244.668 182.112 254.387 181.318 264.381C181.237 265.38 181.131 266.461 181.002 267.607C181.002 267.607 206.21 264.983 214.614 261.127C223.019 257.269 241.768 250.762 251.122 247.427C260.475 244.095 276.682 229.306 276.682 229.306L185.772 235.108Z" fill="#38414B"/>
<path d="M249.763 263.863L249.292 263.813C249.311 263.577 251.269 239.973 253.661 227.321C255.553 217.318 255.864 199.567 256.068 187.821C256.124 184.655 256.172 181.921 256.24 179.981C256.371 176.342 256.636 172.14 256.918 167.691C257.331 161.151 257.799 153.737 257.951 146.308C258.057 141.134 257.92 135.811 257.787 130.663C257.599 123.406 257.422 116.551 257.953 111.045L258.422 111.102C257.897 116.573 258.072 123.41 258.259 130.648C258.393 135.802 258.53 141.134 258.424 146.323C258.27 153.764 257.802 161.184 257.389 167.729C257.11 172.175 256.844 176.374 256.713 180.003C256.645 181.938 256.596 184.668 256.542 187.83C256.335 199.596 256.024 217.377 254.124 227.429C251.736 240.05 249.783 263.625 249.763 263.863Z" fill="#38414B"/>
<path d="M215.864 185.638C212.044 185.638 207.916 185.018 204.429 184.088C198.006 182.376 197.035 183.19 196.998 183.223L196.647 182.87C196.79 182.674 197.839 181.788 204.54 183.571C210.874 185.261 219.333 185.933 224.075 183.655V172.649C224.075 170.619 224.157 168.319 224.245 165.886C224.527 158.032 224.877 148.26 222.581 140.914L223.026 140.739C225.354 148.18 225.002 158.009 224.718 165.906C224.632 168.334 224.548 170.628 224.548 172.647V183.998L224.409 184.067C222.186 185.184 219.138 185.638 215.864 185.638Z" fill="#38414B"/>
<path d="M224.818 153.327L224.417 153.048C229.619 143.67 227.18 132.391 227.154 132.277L227.613 132.149C227.639 132.263 230.125 143.76 224.818 153.327Z" fill="#38414B"/>
<path d="M365.26 217.251H251.683V222.795H365.26V217.251Z" fill="#242A30"/>
<path d="M177.977 181.813C177.977 181.813 198.665 177.716 218.063 181.813L213.967 217.251C213.967 217.251 260.303 221.832 273.018 221.348C273.018 221.348 287.89 219.973 293.923 221.383C299.957 222.795 304.915 218.937 304.269 222.795C303.622 226.653 289.397 232.92 274.742 230.269C274.742 230.269 203.494 264.297 184.873 249.555C170.864 238.465 177.977 181.813 177.977 181.813Z" fill="#DA6C6C"/>
<path d="M203.671 222.945L202.93 222.643C205.167 215.757 212.227 216.8 212.301 216.813L212.19 217.686C211.923 217.644 205.688 216.738 203.671 222.945Z" fill="#8F3D3D"/>
<path d="M278.99 227.752L278.576 227.001C279.8 226.159 281.519 225.97 283.338 225.772C284.844 225.609 286.399 225.439 287.873 224.908C290.782 223.859 290.941 222.78 290.943 222.769L291.73 222.797C291.73 223.071 291.556 224.507 288.116 225.747C286.559 226.309 284.96 226.483 283.413 226.651C281.689 226.836 280.061 227.014 278.99 227.752Z" fill="#8F3D3D"/>
<path d="M301.163 180.012L300.692 179.973C300.895 176.93 300.337 167.511 299.844 159.201C299.563 154.44 299.296 149.943 299.235 147.588C299.075 141.324 299.234 136.41 299.235 136.362L299.708 136.383C299.707 136.432 299.548 141.328 299.708 147.576C299.769 149.919 300.034 154.411 300.316 159.168C300.81 167.493 301.368 176.932 301.163 180.012Z" fill="#38414B"/>
<path d="M299.901 153.371L299.563 153.001C302.314 149.855 302.789 142.751 302.794 142.679L303.265 142.718C303.247 143.016 302.776 150.086 299.901 153.371Z" fill="#38414B"/>
<path d="M258.408 111.34C257.895 111.34 257.391 111.274 256.903 111.133C247.725 108.484 243.872 95.7197 243.834 95.5915L244.284 95.4249C244.32 95.5512 248.097 108.044 257.023 110.619C262.03 112.065 268.993 104.851 272.122 99.5209L272.516 99.8101C269.522 104.915 263.459 111.34 258.408 111.34Z" fill="#38414B"/>
<path d="M209.566 302.746C208.973 302.748 208.367 302.704 207.74 302.612C203.938 302.054 200.942 300.195 198.834 297.086C194.082 290.077 195.454 278.919 195.469 278.809L195.937 278.884C195.922 278.994 194.58 289.938 199.212 296.769C201.24 299.763 204.131 301.552 207.801 302.088C221.468 304.123 226.712 282.409 227.264 279.922C226.254 279.545 221.6 277.914 217.385 278.386C214.439 278.719 209.847 278.187 205.411 277.672C202.476 277.331 199.705 277.013 197.474 276.94L197.487 276.41C199.734 276.482 202.515 276.804 205.46 277.145C209.872 277.654 214.434 278.185 217.339 277.859C222.194 277.311 227.573 279.479 227.627 279.501L227.824 279.58L227.778 279.807C227.727 280.045 223.019 302.744 209.566 302.746Z" fill="#38414B"/>
<path d="M279.105 302.746C265.648 302.748 260.943 280.045 260.896 279.805L260.85 279.578L261.046 279.499C261.1 279.477 266.502 277.319 271.333 277.857C274.24 278.183 278.798 277.654 283.212 277.143C286.155 276.8 288.936 276.48 291.185 276.409L291.198 276.938C288.967 277.009 286.196 277.33 283.261 277.67C278.825 278.183 274.236 278.712 271.287 278.384C267.067 277.91 262.416 279.543 261.408 279.92C261.96 282.409 267.214 304.113 280.871 302.087C284.542 301.548 287.433 299.758 289.463 296.766C294.097 289.931 292.751 278.992 292.737 278.882L293.205 278.807C293.22 278.919 294.591 290.075 289.839 297.084C287.731 300.193 284.734 302.054 280.933 302.61C280.304 302.704 279.696 302.746 279.105 302.746Z" fill="#38414B"/>
<path d="M183.573 442.116C181.157 442.116 179.894 441.485 179.817 441.444L180.015 440.965C180.044 440.977 182.822 442.351 188.05 440.946L188.16 441.461C186.336 441.951 184.804 442.116 183.573 442.116Z" fill="#38414B"/>
<path d="M191.894 452.78C191.867 452.767 189.239 451.537 183.906 448.581C179.44 446.104 179.514 445.456 179.546 445.178C179.571 444.963 179.726 444.833 179.869 444.802L179.964 445.32C180.008 445.309 180.019 445.245 180.016 445.231C180.026 445.298 180.226 445.952 184.115 448.105C189.432 451.052 192.051 452.278 192.075 452.289L191.894 452.78Z" fill="#38414B"/>
<path d="M294.544 164.6V152.373C294.544 151.291 293.76 150.414 292.792 150.414H286.921C285.953 150.414 285.169 151.291 285.169 152.373V164.6C285.169 167.374 284.233 170.047 282.547 172.083L281.47 173.383C278.393 177.099 276.684 181.976 276.684 187.041V217.251H303.03V187.041C303.03 181.976 301.321 177.099 298.243 173.383L297.166 172.083C295.48 170.047 294.544 167.374 294.544 164.6Z" fill="#F7F7F7"/>
<path d="M282.832 180.036C282.182 179.862 281.496 180.202 281.21 180.878C280.136 183.419 279.558 186.274 279.558 189.202V210.925C279.558 212.582 280.76 213.926 282.241 213.926H297.472C298.954 213.926 300.155 212.582 300.155 210.925V189.202C300.155 186.979 299.787 184.816 299.145 182.789C298.913 182.055 298.219 181.669 297.531 181.786C292.337 182.667 286.985 181.147 282.832 180.036Z" fill="#ECCF8F"/>
<path d="M245.44 383.909H385.471V366.011H245.44C241.022 366.011 237.441 370.017 237.441 374.959C237.439 379.901 241.022 383.909 245.44 383.909Z" fill="#D7E0E9"/>
<path d="M347.768 496.929H470.94C479.354 496.929 486.626 490.358 488.396 481.157L534.653 240.589C535.884 234.187 531.522 228.149 525.67 228.149H409.862C403.788 228.149 398.538 232.893 397.261 239.534L347.768 496.929Z" fill="#F7F7F7"/>
<path d="M475.345 464.813L519.617 234.57C520.337 230.824 523.298 228.149 526.722 228.149C532.034 228.149 535.992 233.629 534.874 239.437L488.396 481.157C486.626 490.358 479.354 496.929 470.94 496.929H264.521C258.229 496.929 253.129 491.224 253.129 484.185C253.129 477.147 258.229 471.442 264.521 471.442H468.008C471.544 471.442 474.6 468.68 475.345 464.813Z" fill="#F7F7F7"/>
<path d="M385.672 471.442H468.007C471.542 471.442 474.6 468.68 475.343 464.813L519.535 234.989C520.258 231.225 523.674 227.982 527.114 228.16C532.226 228.422 535.963 233.774 534.874 239.439L488.396 481.159C486.626 490.359 479.354 496.931 470.94 496.931H385.672C379.38 496.931 374.279 491.226 374.279 484.187C374.281 477.147 379.381 471.442 385.672 471.442Z" fill="#FA8686"/>
<path d="M387.705 606.544H435.024V514.198H387.705V606.544Z" fill="#576577"/>
<path d="M421.258 606.544H435.023V514.197H421.258L404.873 522.289L421.258 546.606V606.544Z" fill="#ABB2B7"/>
<path d="M411.363 601.038C434.969 601.038 455.954 608.787 469.365 620.809H353.361C366.772 608.787 387.759 601.038 411.363 601.038Z" fill="#ABB2B7"/>
<path d="M388.093 496.801L404.873 522.289H331.995L315.215 496.801H388.093Z" fill="#9BAAB7"/>
<path d="M563.726 606.544C579.404 606.544 593.344 612.134 602.252 620.809H525.2C534.108 612.136 548.048 606.544 563.726 606.544Z" fill="#E27F7F"/>
<path d="M558.953 610.924H568.501L568.501 70.58H558.953L558.953 610.924Z" fill="#E27F7F"/>
<path d="M578.897 87.6394H528.444C524.612 87.6394 521.496 84.1532 521.496 79.8668H522.193C522.193 83.7229 524.997 86.8613 528.444 86.8613H578.895V87.6394H578.897Z" fill="#844C4C"/>
<path d="M534.205 83.5599H532.977V110.525H534.205V83.5599Z" fill="#844C4C"/>
<path d="M516.698 106.019H550.482V143.871C550.482 147.843 548.678 151.543 545.692 153.693L541.147 156.967C539.452 158.186 538.429 160.286 538.429 162.538V166.323C538.429 168.004 537.212 169.366 535.709 169.366H531.469C529.967 169.366 528.749 168.004 528.749 166.323V162.538C528.749 160.284 527.726 158.186 526.031 156.967L521.486 153.693C518.5 151.543 516.696 147.843 516.696 143.871V106.019H516.698Z" fill="#F7F7F7"/>
<path d="M526.194 123.28C528.248 121.442 533.041 123.28 533.041 123.28C537.014 121.442 540.025 123.28 540.025 123.28C542.518 121.498 544.624 121.52 546.098 121.974V143.871C546.098 146.188 545.059 148.319 543.319 149.573L538.773 152.847C536.783 154.281 535.349 156.397 534.612 158.825H532.566C531.829 156.399 530.396 154.282 528.405 152.847L523.859 149.573C522.119 148.321 521.08 146.189 521.08 143.873V121.588C523.812 121.529 526.194 123.28 526.194 123.28Z" fill="#A23333"/>
<path d="M338.508 514.197C338.508 514.197 335.823 579.766 337.166 587.024C338.508 594.282 341.864 598.786 342.31 606.295C342.757 613.802 340.744 626.566 340.744 626.566H336.789V615.805C336.789 615.805 325.018 633.824 315.207 636.827L324.188 605.544L326.426 591.53L315.999 514.199L338.508 514.197Z" fill="#F2C193"/>
<path d="M304.914 508.443C304.914 508.443 302.229 574.011 303.571 581.269C304.914 588.527 308.269 593.031 308.718 600.538C309.165 608.045 307.151 620.809 307.151 620.809H303.195V610.049C303.195 610.049 291.424 628.067 281.612 631.07L290.594 599.788L292.832 585.773L282.405 508.443H304.914Z" fill="#F2C193"/>
<path d="M307.326 515.199H272.506C272.506 515.199 272.059 506.157 271.388 497.914C270.717 489.671 254.283 445.179 267.361 423.352C281.457 399.827 388.851 397.709 388.851 397.709L394.089 385.324H433.165C433.165 385.324 447.678 406.554 404.865 428.138C362.051 449.722 303.53 456.101 303.53 456.101L307.326 515.199Z" fill="#323534"/>
<path d="M394.089 385.324L388.851 397.709C388.851 397.709 341.122 398.654 305.125 406.252C287.157 419.016 278.416 431.154 282.68 448.38C287.944 469.653 292.531 482.415 290.573 489.422C288.839 495.625 296.552 505.751 296.857 515.199H307.327L303.531 456.103C303.531 456.103 362.053 449.724 404.865 428.14C447.678 406.556 433.165 385.326 433.165 385.326H394.089V385.324Z" fill="#6C6C6C"/>
<path d="M468.776 388.724C468.776 388.724 486.227 472.555 438.153 472.555C416.254 472.555 346.115 472.555 346.115 472.555C346.115 472.555 346.115 476.032 341.081 476.407V518.826H302.486C302.486 518.826 301.479 514.697 302.486 507.564C303.493 500.432 287.384 450.129 304.5 430.608C316.999 416.352 361.739 411.707 384.963 410.238C393.555 409.695 400.92 403.235 403.436 394.03L404.865 388.803L468.776 388.724Z" fill="#323534"/>
<path d="M335.022 448.089L334.33 448.705L348.553 468.726L349.245 468.111L335.022 448.089Z" fill="#6C6C6C"/>
<path d="M331.521 450.113L330.685 450.434L337.872 473.828L338.708 473.506L331.521 450.113Z" fill="#6C6C6C"/>
<path d="M441.066 425.394C440.999 425.346 439.385 424.138 435.172 417.378C430.873 410.484 437.457 391.088 437.74 390.264L438.565 390.617C438.498 390.813 431.864 410.345 435.897 416.812C439.955 423.323 441.535 424.553 441.549 424.564L441.066 425.394Z" fill="#6C6C6C"/>
<path d="M381.434 448.787L380.935 447.972C381.311 447.684 390.115 440.999 396.859 440.999C396.952 440.999 397.044 440.999 397.137 441.003C402.354 441.159 409.337 437.942 414.418 435.6C415.709 435.005 416.858 434.475 417.795 434.089C419.395 433.428 421.014 433.132 422.887 432.791C426.462 432.141 430.908 431.328 437.961 427.538C448.426 421.911 450.03 390.731 450.045 390.418L450.927 390.471C450.865 391.778 449.277 422.552 438.344 428.428C431.176 432.282 426.658 433.104 423.028 433.765C421.199 434.1 419.618 434.388 418.099 435.016C417.171 435.398 416.033 435.924 414.753 436.513C409.6 438.888 402.548 442.149 397.112 441.99C390.651 441.853 381.526 448.717 381.434 448.787Z" fill="#6C6C6C"/>
<path d="M444.398 260.294C456.139 262.114 471.438 264.287 477.684 271.82C483.93 279.353 474.372 305.219 471.767 324.17C469.161 343.123 473.939 384.185 470.68 390.746C467.422 397.306 426.829 393.534 413.008 392.32C399.188 391.106 385.133 394.66 389.74 383.561C392.648 376.553 397.571 371.048 396.899 360.036C396.228 349.024 401.597 333.552 402.269 327.398C402.94 321.244 397.346 316.491 397.793 305.229C398.24 293.966 408.936 269.431 411.217 264.686C413.499 259.942 430.592 258.155 444.398 260.294Z" fill="#FFC5C5"/>
<path d="M458.265 322.486C454.355 322.167 450.885 323.76 449.125 326.314C447.714 323.502 444.488 321.362 440.577 321.043C436.666 320.724 433.196 322.317 431.437 324.872C430.027 322.059 426.799 319.919 422.889 319.6C418.978 319.282 415.508 320.876 413.748 323.431C412.339 320.618 409.111 318.478 405.2 318.159C403.452 318.016 401.807 318.285 400.342 318.82C401.516 321.911 402.588 324.511 402.272 327.398C402.106 328.911 401.656 330.993 401.082 333.426C402.046 333.774 403.066 334.036 404.159 334.125C408.07 334.444 411.54 332.851 413.3 330.297C414.709 333.109 417.937 335.25 421.848 335.568C425.758 335.887 429.228 334.292 430.988 331.74C432.397 334.552 435.625 336.693 439.536 337.011C443.446 337.33 446.917 335.735 448.676 333.182C450.087 335.995 453.314 338.135 457.224 338.454C462.656 338.897 467.293 335.682 467.579 331.273C467.867 326.862 463.698 322.929 458.265 322.486Z" fill="#323534"/>
<path d="M411.272 309.808C412.861 312.498 416.218 314.371 420.139 314.371C424.061 314.371 427.418 312.499 429.007 309.808C430.597 312.498 433.954 314.371 437.874 314.371C441.796 314.371 445.154 312.499 446.743 309.808C448.333 312.498 451.69 314.371 455.61 314.371C461.056 314.371 465.471 310.787 465.471 306.366C465.471 301.944 461.056 298.36 455.61 298.36C451.688 298.36 448.331 300.232 446.743 302.923C445.154 300.232 441.796 298.36 437.874 298.36C433.954 298.36 430.595 300.232 429.007 302.923C427.418 300.234 424.061 298.36 420.139 298.36C416.218 298.36 412.861 300.232 411.272 302.923C409.682 300.232 406.325 298.36 402.404 298.36C401.106 298.36 399.872 298.577 398.736 298.946C398.22 301.281 397.869 303.434 397.797 305.229C397.662 308.609 398.098 311.359 398.72 313.779C399.859 314.153 401.1 314.369 402.404 314.369C406.325 314.371 409.682 312.498 411.272 309.808Z" fill="#323534"/>
<path d="M448.701 200.089C442.762 199.45 429.567 197.115 420.45 198.867C411.332 200.62 407.417 205.124 408.872 211.38C410.325 217.637 415.025 221.391 415.36 224.644C415.696 227.898 415.136 233.904 409.878 241.599C404.621 249.295 400.769 264.729 427.865 259.076C454.96 253.424 453.085 225.269 453.085 225.269L448.701 200.089Z" fill="#363B35"/>
<path d="M431.805 257.053C431.805 257.053 424.246 257.172 421.448 259.8C418.652 262.427 416.032 276.198 418.381 276.949C420.729 277.699 430.127 270.192 430.127 270.192C430.127 270.192 431.101 281.955 436.152 281.579C441.202 281.204 452.165 266.69 453.06 262.059C453.954 257.428 431.805 257.053 431.805 257.053Z" fill="#323534"/>
<path d="M431.212 201.779C425.483 204.435 423.301 210.441 422.463 216.635C421.623 222.83 421.623 226.583 420.45 227.709C420.45 227.709 422.463 238.408 424.309 240.473C426.156 242.539 431.212 241.599 431.212 241.599C431.212 241.599 431.698 256.815 428.336 258.868C426.49 259.994 422.296 259.054 423.638 262.059C424.981 265.062 438.572 269.004 444.949 264.686C451.325 260.369 451.325 222.454 451.325 222.454L441.256 203.309L431.212 201.779Z" fill="#F2C193"/>
<path d="M431.304 242.03L431.122 241.171C434.8 240.195 437.961 237.82 440.783 233.909L441.397 234.464C438.459 238.532 435.157 241.006 431.304 242.03Z" fill="#8F3D3D"/>
<path d="M413.234 264.873C413.234 264.873 406.019 266.939 397.965 279.325C389.91 291.714 362.223 349.711 362.223 349.711C362.223 349.711 297.957 359.283 289.735 358.721C281.513 358.157 264.566 361.259 263.39 367.124C263.39 367.124 366.69 367.124 374.273 367.124C381.855 367.124 404.174 315.999 404.174 315.999L413.234 264.873Z" fill="#F2C193"/>
<path d="M274.41 367.186C274.274 366.146 274.624 364.062 276.916 363.636C277.974 363.438 279.239 363.418 280.579 363.398C282.411 363.368 284.303 363.341 285.477 362.815C287.577 361.876 290.432 360.655 290.432 360.655L290.714 361.477C290.714 361.477 287.864 362.698 285.768 363.634C284.461 364.22 282.493 364.251 280.589 364.28C279.28 364.3 278.042 364.319 277.045 364.506C274.934 364.899 275.178 366.972 275.189 367.062L274.41 367.186Z" fill="#8F3D3D"/>
<path d="M475.039 269.312C483.537 275.228 487.289 301.475 489.75 320.245C492.21 339.014 503.901 388.803 482.393 388.803C460.888 388.803 386.048 387.79 380.344 385.02C376.82 383.31 371.475 378.969 371.212 376.072C370.948 373.175 374.639 372.8 376.484 373.362C378.329 373.924 381.603 378.055 383.531 377.68C385.461 377.304 383.531 373.926 382.524 372.987C381.518 372.047 383.195 370.921 385.461 372.236C387.726 373.549 390.656 373.519 392.547 377.758L467.263 362.288C467.263 362.288 462.23 320.995 459.545 304.478C456.863 287.96 463.348 261.173 475.039 269.312Z" fill="#F2C193"/>
<path d="M476.342 368.554C472.999 363.387 468.876 364.075 468.84 364.086L468.712 363.216C468.895 363.174 473.354 362.431 476.982 368.036L476.342 368.554Z" fill="#8F3D3D"/>
<path d="M438.153 379.932C443.203 379.932 447.298 376.024 447.298 371.203C447.298 369.55 446.789 368.019 445.951 366.701L429.115 370.187C429.074 370.524 429.007 370.855 429.007 371.203C429.007 376.024 433.101 379.932 438.153 379.932Z" fill="#F7F7F7"/>
<path d="M404.174 315.999L413.234 264.873C413.234 264.873 406.019 266.939 397.965 279.325C395.845 282.585 392.362 289.017 388.386 296.705C385.757 310.711 383.569 328.231 386.612 337.76C387.887 341.753 388.108 345.818 387.738 349.729C395.914 334.911 404.174 315.999 404.174 315.999Z" fill="#8F3D3D"/>
<path d="M336.789 615.803V626.564H340.744C340.744 626.564 342.757 613.8 342.31 606.293C342.212 604.651 341.958 603.169 341.634 601.754C333.289 613.218 329.482 609.726 322.285 612.173L315.207 636.823C325.018 633.822 336.789 615.803 336.789 615.803Z" fill="#3B2E2E"/>
<path d="M303.197 610.049V620.809H307.151C307.151 620.809 309.165 608.045 308.718 600.538C308.62 598.896 308.366 597.415 308.042 595.999C299.697 607.463 295.889 603.971 288.692 606.418L281.614 631.068C291.426 628.067 303.197 610.049 303.197 610.049Z" fill="#3B2E2E"/>
<path d="M431.212 201.779C438.169 203.78 438.767 209.339 437.374 217.344C435.982 225.349 434.591 234.744 443.139 239.164C443.139 239.164 437.771 256.925 443.139 265.152C448.506 273.378 465.204 265.818 472.559 271.822C472.559 271.822 470.77 263.817 474.546 260.259C478.322 256.701 479.118 247.559 474.546 243.361C469.974 239.16 460.233 239.358 462.222 227.795C464.209 216.233 462.775 205.115 454.448 201.781C446.121 198.443 436.58 198.888 431.212 201.779Z" fill="#363B35"/>
<path d="M533.362 468.829C530.585 468.829 527.768 468.472 524.938 467.748C508.121 463.455 492.779 446.74 482.848 421.889C464.639 376.315 438.344 370.531 438.081 370.48L438.22 369.61C438.488 369.663 465.175 375.497 483.567 421.528C493.395 446.126 508.538 462.658 525.113 466.89C536.359 469.757 547.434 466.727 556.3 458.35C570.375 445.044 568.129 427.838 566.512 421.058C565.977 418.811 565.301 416.748 564.538 414.895C563.909 415.424 563.283 415.915 562.662 416.369C558.665 419.289 555.096 420.448 552.6 419.641C547.991 418.137 547.138 413.886 547.809 410.704C548.642 406.76 552.024 403.09 556.624 404.006C559.416 404.575 562.508 408.314 564.826 413.534C575.468 404.117 586.749 384.09 589.833 357.74C593.192 329.063 584.276 313.305 573.954 295.059C569.369 286.955 564.628 278.575 560.575 268.394C558.873 264.119 557.138 259.873 555.414 255.649C543.432 226.307 532.114 198.591 533.661 167.826L534.447 167.876C532.911 198.422 544.19 226.041 556.129 255.281C557.856 259.508 559.59 263.755 561.294 268.035C565.324 278.155 570.049 286.508 574.62 294.585C585.024 312.976 594.01 328.859 590.616 357.853C587.489 384.553 575.99 404.853 565.175 414.347C566.008 416.345 566.725 418.535 567.272 420.831C568.93 427.774 571.226 445.394 556.807 459.022C549.983 465.478 541.867 468.829 533.362 468.829ZM555.208 404.742C551.736 404.742 549.248 407.732 548.578 410.907C547.987 413.712 548.744 417.462 552.823 418.793C555.052 419.52 558.483 418.368 562.233 415.629C562.882 415.155 563.538 414.638 564.194 414.08C561.839 408.726 558.786 405.342 556.485 404.874C556.047 404.786 555.62 404.742 555.208 404.742Z" fill="#A23333"/>
<path d="M682.22 488.309C666.552 477.645 656.25 497.541 651.988 515.56C647.725 533.579 642.826 535.58 641.037 528.073C639.248 520.566 647.748 483.526 650.881 466.478C654.013 449.427 650.881 421.962 636.514 421.962C622.149 421.962 619.016 449.427 622.149 466.478C625.28 483.526 633.782 520.566 631.993 528.073C630.204 535.58 625.305 533.579 621.042 515.56C616.78 497.541 600.231 467.384 584.562 478.048C566.216 490.533 579.864 516.623 603.356 526.571C622.647 534.741 630.204 559.105 630.204 559.105H636.516H642.828C642.828 559.105 650.385 534.739 669.676 526.571C693.166 516.625 700.566 500.796 682.22 488.309Z" fill="#7C9A8A"/>
<path d="M636.904 434.977H636.126V559.106H636.904V434.977Z" fill="#38414B"/>
<path d="M625.387 539.54C605.978 499.082 581.277 481.353 581.028 481.179L581.444 480.443C581.691 480.619 606.559 498.458 626.071 539.13L625.387 539.54Z" fill="#38414B"/>
<path d="M646.184 539.584L645.543 539.088C667.707 503.389 685.576 490.975 685.756 490.852L686.16 491.595C685.983 491.714 668.241 504.054 646.184 539.584Z" fill="#38414B"/>
<path d="M608.996 552.819C608.996 576.36 614.377 600.656 617.585 613.046C618.872 618.017 622.931 621.423 627.557 621.423H645.473C650.099 621.423 654.159 618.017 655.445 613.046C658.653 600.654 664.034 576.358 664.034 552.819H608.996Z" fill="#38414B"/>
<path d="M659.19 596.664C661.7 584.123 664.034 568.318 664.034 552.819H608.996C608.996 555.087 609.06 557.36 609.153 559.63C615.999 562.854 622.262 558.359 630.088 565.114C637.919 571.87 632.875 574.624 642.109 579.128C649.328 582.649 656.355 589.692 659.19 596.664Z" fill="#2E353D"/>
<path d="M471.492 496.801C480.552 496.801 487.265 489.171 489.484 476.806L501.9 411.877C502.544 408.508 500.249 405.333 497.168 405.333H366.057C361.701 405.333 358.17 401.384 358.17 396.511C358.17 391.639 361.701 387.69 366.057 387.69H512.121C517.577 387.69 521.645 393.316 520.502 399.284L499.98 506.516C498.211 515.717 490.938 522.289 482.524 522.289H404.871L388.091 496.801H471.492Z" fill="#576577"/>
<path opacity="0.15" d="M356.664 705.107C528.024 705.107 666.939 693.442 666.939 679.053C666.939 664.664 528.024 653 356.664 653C185.304 653 46.3893 664.664 46.3893 679.053C46.3893 693.442 185.304 705.107 356.664 705.107Z" fill="black"/>
<defs>
<filter id="filter0_d_4_231" x="0.237183" y="69.2522" width="692.499" height="614.32" filterUnits="userSpaceOnUse" color-interpolation-filters="sRGB">
<feFlood flood-opacity="0" result="BackgroundImageFix"/>
<feColorMatrix in="SourceAlpha" type="matrix" values="0 0 0 0 0 0 0 0 0 0 0 0 0 0 0 0 0 0 127 0" result="hardAlpha"/>
<feOffset dx="19" dy="-5"/>
<feGaussianBlur stdDeviation="5"/>
<feComposite in2="hardAlpha" operator="out"/>
<feColorMatrix type="matrix" values="0 0 0 0 0 0 0 0 0 0 0 0 0 0 0 0 0 0 0.07 0"/>
<feBlend mode="normal" in2="BackgroundImageFix" result="effect1_dropShadow_4_231"/>
<feBlend mode="normal" in="SourceGraphic" in2="effect1_dropShadow_4_231" result="shape"/>
</filter>
</defs>
</svg>
